<?xml version="1.0" standalone="no"?>
<!DOCTYPE svg PUBLIC "-//W3C//DTD SVG 20010904//EN"
 "http://www.w3.org/TR/2001/REC-SVG-20010904/DTD/svg10.dtd">
<svg version="1.0" xmlns="http://www.w3.org/2000/svg"
 width="64.000000pt" height="64.000000pt" viewBox="0 0 64.000000 64.000000"
 preserveAspectRatio="xMidYMid meet">

<g transform="translate(0.000000,64.000000) scale(0.100000,-0.100000)"
fill="#000000" stroke="none">
<path d="M460 400 c0 -5 5 -10 11 -10 5 0 7 5 4 10 -3 6 -8 10 -11 10 -2 0 -4
-4 -4 -10z"/>
<path d="M160 390 c-13 -8 -13 -10 2 -10 9 0 20 5 23 10 8 13 -5 13 -25 0z"/>
<path d="M310 336 c0 -56 13 -77 33 -57 8 8 8 11 -1 11 -8 0 -12 18 -12 50 0
28 -4 50 -10 50 -5 0 -10 -24 -10 -54z"/>
<path d="M544 375 c-4 -9 -2 -21 4 -27 15 -15 44 -1 40 19 -4 23 -36 29 -44 8z"/>
<path d="M55 343 c3 -8 5 -26 5 -39 0 -15 6 -24 15 -24 10 0 15 10 15 31 0 34
22 36 28 3 6 -28 15 -35 56 -39 30 -2 36 0 32 12 -3 8 -6 28 -6 44 0 40 -18
37 -22 -3 -4 -41 -32 -45 -36 -5 -2 15 -6 27 -10 28 -4 1 -24 2 -45 3 -29 2
-37 0 -32 -11z"/>
<path d="M232 348 c-30 -30 2 -87 42 -72 23 9 19 21 -6 20 -17 -1 -23 5 -23
19 0 14 6 20 23 19 12 0 21 4 19 10 -5 16 -40 19 -55 4z"/>
<path d="M366 344 c-17 -17 -20 -33 -8 -50 11 -17 45 -25 62 -14 12 8 9 10
-12 10 -15 0 -30 5 -33 10 -4 6 7 10 24 10 24 0 31 4 31 19 0 17 -18 31 -40
31 -5 0 -16 -7 -24 -16z m44 -14 c0 -5 -7 -10 -15 -10 -8 0 -15 5 -15 10 0 6
7 10 15 10 8 0 15 -4 15 -10z"/>
<path d="M468 349 c-25 -14 -23 -56 2 -69 46 -25 88 23 54 61 -19 21 -31 23
-56 8z"/>
<path d="M540 250 c0 -5 7 -10 15 -10 8 0 15 5 15 10 0 6 -7 10 -15 10 -8 0
-15 -4 -15 -10z"/>
</g>
</svg>
